# xmcd
# Copyright (C) 1995-1998 Ti Kan
#
# Track frame offsets:
#       150
#       16882
#       35399
#       60154
#       77107
#       95514
#       112284
#       133563
#       148757
#       171186
#       188934
#
# Disc length: 2639 seconds
#
# Revision: 0
# Processed by: cddbd v1.4b42PL1 Copyright (c) Steve Scherf et al.
# Submitted via: CD-Transfer v1.0
#
DISCID=920a4d0b
DTITLE=Hamschter - Nächtelang
DYEAR=2000
DGENRE=
TTITLE0=Schachmatt
TTITLE1=Kahlschlag
TTITLE2=Jessie
TTITLE3=Jelly Legs
TTITLE4=Numen Ei Nacht
TTITLE5=Geischterschtund
TTITLE6=Gheimi Wünsch
TTITLE7=Dräi Di Nid Um
TTITLE8=Champagner and Kaviar
TTITLE9=Schturmnacht (Pilot Of My Dreams)
TTITLE10=Guet Nacht
EXTD=
EXTT0=
EXTT1=
EXTT2=
EXTT3=
EXTT4=
EXTT5=
EXTT6=
EXTT7=
EXTT8=
EXTT9=
EXTT10=
PLAYORDER=
